<?xml version="1.0" standalone="no"?>
<!DOCTYPE svg PUBLIC "-//W3C//DTD SVG 20010904//EN"
 "http://www.w3.org/TR/2001/REC-SVG-20010904/DTD/svg10.dtd">
<svg version="1.0" xmlns="http://www.w3.org/2000/svg"
 width="1024.000000pt" height="1024.000000pt" viewBox="0 0 1024.000000 1024.000000"
 preserveAspectRatio="xMidYMid meet">
<metadata>
Created by potrace 1.11, written by Peter Selinger 2001-2013
</metadata>
<g transform="translate(0.000000,1024.000000) scale(0.100000,-0.100000)"
fill="#000000" stroke="none">
<path d="M858 10225 c-375 -63 -675 -320 -804 -687 -57 -162 -54 114 -54
-4423 0 -3649 2 -4181 15 -4255 39 -224 138 -411 297 -566 141 -137 313 -231
501 -271 78 -17 297 -18 4307 -18 4010 0 4229 1 4307 18 194 42 379 144 519
289 118 121 182 226 240 393 57 164 54 -110 54 4415 0 3666 -2 4176 -15 4258
-36 224 -141 421 -311 583 -146 140 -330 230 -539 264 -78 13 -643 15 -4265
14 -3363 -1 -4190 -4 -4252 -14z m5083 -3586 c249 -25 463 -156 624 -383 65
-91 162 -286 210 -419 21 -59 40 -105 43 -103 2 3 82 128 177 278 325 513 369
580 393 598 50 40 165 34 331 -16 100 -30 151 -72 151 -123 0 -136 -241 -503
-730 -1116 l-178 -222 53 -274 c81 -421 124 -569 200 -691 75 -119 162 -129
284 -31 25 20 132 122 237 225 126 123 199 188 213 188 66 0 77 -169 21 -328
-67 -189 -296 -427 -514 -532 -163 -79 -348 -101 -458 -56 -199 82 -320 276
-454 732 -26 87 -50 162 -53 166 -4 4 -54 -54 -111 -130 -361 -471 -610 -697
-871 -788 -87 -31 -205 -41 -267 -25 -54 15 -106 59 -97 83 4 9 64 68 133 130
270 242 558 545 796 841 160 200 307 407 302 426 -3 9 -10 43 -16 76 -15 78
-121 559 -124 562 -1 1 -38 -4 -81 -12 -44 -8 -125 -14 -180 -15 -300 -1 -545
110 -631 285 -22 47 -28 74 -32 153 -7 164 35 279 141 384 68 68 155 113 252
132 89 18 110 18 236 5z m-1871 -20 c239 -29 433 -95 602 -205 89 -58 260
-227 313 -309 148 -231 214 -489 215 -837 1 -467 -146 -888 -415 -1188 -211
-236 -499 -397 -821 -460 -225 -44 -473 -37 -692 20 l-74 18 -26 -29 c-35 -39
-107 -51 -216 -38 -112 14 -169 41 -206 97 -31 47 -60 128 -60 169 0 16 -12
31 -42 49 -176 110 -304 213 -351 282 -16 22 -35 60 -43 83 -13 37 -13 44 2
67 15 23 20 24 73 19 31 -4 127 -24 214 -45 156 -39 157 -39 162 -18 2 11 13
82 25 156 58 364 219 860 404 1245 93 193 185 281 283 273 35 -3 40 -7 65 -56
55 -110 46 -228 -53 -670 -28 -125 -66 -297 -84 -382 -57 -260 -126 -703 -112
-716 20 -21 332 -64 455 -64 202 1 380 80 542 242 175 176 296 421 346 703 25
137 25 441 1 575 -67 363 -235 560 -532 621 -214 45 -467 -1 -1010 -183 -160
-53 -191 -61 -281 -65 -99 -5 -102 -5 -118 19 -55 84 123 267 404 416 195 104
405 177 597 206 108 17 319 20 433 5z"/>
<path d="M5840 6275 c-7 -9 -15 -37 -17 -63 -7 -78 36 -153 121 -211 44 -30
149 -74 204 -86 l32 -7 -25 68 c-59 157 -130 265 -196 299 -37 20 -103 19
-119 0z"/>
</g>
</svg>
